# xmcd
#
# Track frame offsets:
#	150
#	15552
#	30893
#	46582
#	78450
#	95637
#	112972
#	137241
#	154624
#	177566
#	192979
#	209780
#	223866
#	239950
#	256903
#
# Disc length: 3655 seconds
#
# Revision: 2
# Processed by: cddbd v1.5.1PL0 Copyright (c) Steve Scherf et al.
# Submitted via: audiograbber 1.83.01
#
DISCID=d40e450f
DTITLE=Various Artist - CB Essential 450 V.2 Disc 09
DYEAR=1900
DGENRE=Karaoke
TTITLE0=Montgomery Gentry - Hillbilly Shoes
TTITLE1=Eric Heatherly - Flowers On The Wall
TTITLE2=Faith Hill - The Way You Love Me
TTITLE3=Alan Jackson - The Blues Man
TTITLE4=George Strait - Write This Down
TTITLE5=Shania Twain - Don't Be Stupid
TTITLE6=Vince Gill - Go Rest High On That Mountain
TTITLE7=Kenny Rogers - Buy Me A Rose
TTITLE8=Shania Twain and Bryan White - From This Moment On
TTITLE9=Jo Dee Messina - I'm Alright
TTITLE10=Mark Wills - Don't Laugh At Me
TTITLE11=Pam Tillis - Mi Vida Loca (My Crazy Life)
TTITLE12=Montgomery Gentry - Lonely And Gone
TTITLE13=Shania Twain - Love Gets Me Every Time
TTITLE14=Dixie Chicks, The - Sin Wagon
EXTD=
EXTT0=
EXTT1=
EXTT2=
EXTT3=
EXTT4=
EXTT5=
EXTT6=
EXTT7=
EXTT8=
EXTT9=
EXTT10=
EXTT11=
EXTT12=
EXTT13=
EXTT14=
PLAYORDER=
